<svg width="40" height="40" viewBox="0 0 40 40" fill="none" xmlns="http://www.w3.org/2000/svg">
<g clip-path="url(#clip0_2001_3268)">
<path d="M34.9998 7.95719V36C34.9998 38.2091 33.209 40 30.9998 40H9C6.79086 40 5 38.2091 5 36V4C5 1.79086 6.79086 0 9 0H26.3367L34.9998 7.95719Z" fill="#6172F3"/>
<g clip-path="url(#clip1_2001_3268)">
<path d="M20 32.6666C23.6819 32.6666 26.6666 29.6819 26.6666 26C26.6666 22.3181 23.6819 19.3333 20 19.3333C16.3181 19.3333 13.3333 22.3181 13.3333 26C13.3333 29.6819 16.3181 32.6666 20 32.6666Z" stroke="white" stroke-width="1.33333" stroke-linecap="round" stroke-linejoin="round"/>
<path d="M18.6667 23.3333L22.6667 26L18.6667 28.6666V23.3333Z" stroke="white" stroke-width="1.33333" stroke-linecap="round" stroke-linejoin="round"/>
</g>
<g filter="url(#filter0_d_2001_3268)">
<path d="M34.9998 7.95719H27.3367C26.7844 7.95719 26.3367 7.50947 26.3367 6.95719V0L34.9998 7.95719Z" fill="#C7D7FE"/>
</g>
</g>
<defs>
<filter id="filter0_d_2001_3268" x="23.3367" y="-1" width="12.6631" height="11.9572" filterUnits="userSpaceOnUse" color-interpolation-filters="sRGB">
<feFlood flood-opacity="0" result="BackgroundImageFix"/>
<feColorMatrix in="SourceAlpha" type="matrix" values="0 0 0 0 0 0 0 0 0 0 0 0 0 0 0 0 0 0 127 0" result="hardAlpha"/>
<feOffset dx="-1" dy="1"/>
<feGaussianBlur stdDeviation="1"/>
<feComposite in2="hardAlpha" operator="out"/>
<feColorMatrix type="matrix" values="0 0 0 0 0 0 0 0 0 0 0 0 0 0 0 0 0 0 0.2 0"/>
<feBlend mode="normal" in2="BackgroundImageFix" result="effect1_dropShadow_2001_3268"/>
<feBlend mode="normal" in="SourceGraphic" in2="effect1_dropShadow_2001_3268" result="shape"/>
</filter>
<clipPath id="clip0_2001_3268">
<rect width="40" height="40" fill="white"/>
</clipPath>
<clipPath id="clip1_2001_3268">
<rect width="16" height="16" fill="white" transform="translate(12 18)"/>
</clipPath>
</defs>
</svg>
